inDegrees=no
DataType=double
version=3
OpenSimVersion=4.4-2022-10-11-798caa840
endheader
time	elv_angle	shoulder_elv	shoulder_rot	elbow_flexion	pro_sup	deviation	flexion
2.4020851434	0.3316125572	1.0566492081	0.7454479337	1.2954237461	0.0000000000	0.0000000000	0.0000000000
2.4062554301	0.3316125572	1.0566492081	0.7454479337	1.2954237461	0.0000000000	0.0000000000	0.0000000000
2.4104257168	0.3316125572	1.0566492081	0.7454479337	1.2954237461	0.0000000000	0.0000000000	0.0000000000
2.4145960035	0.3316125572	1.0566492081	0.7454479337	1.2954237461	0.0000000000	0.0000000000	0.0000000000
2.4187662902	0.3316125572	1.0566492081	0.7454479337	1.2954237461	0.0000000000	0.0000000000	0.0000000000
2.4229365769	0.3316125572	1.0566492081	0.7454479337	1.2954237461	0.0000000000	0.0000000000	0.0000000000
2.4271068636	0.3316125572	1.0566492081	0.7454479337	1.2954237461	0.0000000000	0.0000000000	0.0000000000
2.4312771503	0.3316125572	1.0566492081	0.7454479337	1.2954237461	0.0000000000	0.0000000000	0.0000000000
2.4354474370	0.3316125572	1.0566492081	0.7454479337	1.2954237461	0.0000000000	0.0000000000	0.0000000000
2.4396177237	0.3316125572	1.0566492081	0.7454479337	1.2954237461	0.0000000000	0.0000000000	0.0000000000
2.4437880104	0.3316125572	1.0566492081	0.7454479337	1.2954237461	0.0000000000	0.0000000000	0.0000000000
2.4479582971	0.3316125572	1.0566492081	0.7454479337	1.2954237461	0.0000000000	0.0000000000	0.0000000000
2.4521285838	0.3316125572	1.0566492081	0.7454479337	1.2954237461	0.0000000000	0.0000000000	0.0000000000
2.4562988705	0.3316125572	1.0566492081	0.7454479337	1.2954237461	0.0000000000	0.0000000000	0.0000000000
2.4604691573	0.3316125572	1.0566492081	0.7454479337	1.2954237461	0.0000000000	0.0000000000	0.0000000000
2.4646394440	0.3316125572	1.0566492081	0.7454479337	1.2954237461	0.0000000000	0.0000000000	0.0000000000
2.4688097307	0.3316125572	1.0566492081	0.7454479337	1.2954237461	0.0000000000	0.0000000000	0.0000000000
2.4729800174	0.3316125572	1.0566492081	0.7454479337	1.2954237461	0.0000000000	0.0000000000	0.0000000000
2.4771503041	0.3316125572	1.0566492081	0.7454479337	1.2954237461	0.0000000000	0.0000000000	0.0000000000
2.4813205908	0.3316125572	1.0566492081	0.7454479337	1.2954237461	0.0000000000	0.0000000000	0.0000000000
2.4854908775	0.3316125572	1.0566492081	0.7454479337	1.2954237461	0.0000000000	0.0000000000	0.0000000000
2.4896611642	0.3316125572	1.0566492081	0.7454479337	1.2954237461	0.0000000000	0.0000000000	0.0000000000
2.4938314509	0.3316125572	1.0566492081	0.7454479337	1.2954237461	0.0000000000	0.0000000000	0.0000000000
2.4980017376	0.3316125572	1.0566492081	0.7454479337	1.2954237461	0.0000000000	0.0000000000	0.0000000000
2.5021720243	0.3316125572	1.0566492081	0.7454479337	1.2954237461	0.0000000000	0.0000000000	0.0000000000
2.5063423110	0.3316125572	1.0566492081	0.7454479337	1.2954237461	0.0000000000	0.0000000000	0.0000000000
2.5105125977	0.3316125572	1.0566492081	0.7454479337	1.2954237461	0.0000000000	0.0000000000	0.0000000000
2.5146828844	0.3316125572	1.0566492081	0.7454479337	1.2954237461	0.0000000000	0.0000000000	0.0000000000
2.5188531712	0.3316125572	1.0566492081	0.7454479337	1.2954237461	0.0000000000	0.0000000000	0.0000000000
2.5230234579	0.3316125572	1.0566492081	0.7454479337	1.2954237461	0.0000000000	0.0000000000	0.0000000000
2.5271937446	0.3316125572	1.0566492081	0.7454479337	1.2954237461	0.0000000000	0.0000000000	0.0000000000
2.5313640313	0.3316125572	1.0566492081	0.7454479337	1.2954237461	0.0000000000	0.0000000000	0.0000000000
2.5355343180	0.3316125572	1.0566492081	0.7454479337	1.2954237461	0.0000000000	0.0000000000	0.0000000000
2.5397046047	0.3316125572	1.0566492081	0.7454479337	1.2954237461	0.0000000000	0.0000000000	0.0000000000
2.5438748914	0.3316125572	1.0566492081	0.7454479337	1.2954237461	0.0000000000	0.0000000000	0.0000000000
2.5480451781	0.3316125572	1.0566492081	0.7454479337	1.2954237461	0.0000000000	0.0000000000	0.0000000000
2.5522154648	0.3316125572	1.0566492081	0.7454479337	1.2954237461	0.0000000000	0.0000000000	0.0000000000
2.5563857515	0.3316125572	1.0566492081	0.7454479337	1.2954237461	0.0000000000	0.0000000000	0.0000000000
2.5605560382	0.3316125572	1.0566492081	0.7454479337	1.2954237461	0.0000000000	0.0000000000	0.0000000000
2.5647263249	0.3316125572	1.0566492081	0.7454479337	1.2954237461	0.0000000000	0.0000000000	0.0000000000
2.5688966116	0.3316125572	1.0566492081	0.7454479337	1.2954237461	0.0000000000	0.0000000000	0.0000000000
2.5730668983	0.3316125572	1.0566492081	0.7454479337	1.2954237461	0.0000000000	0.0000000000	0.0000000000
2.5772371851	0.3316125572	1.0566492081	0.7454479337	1.2954237461	0.0000000000	0.0000000000	0.0000000000
2.5814074718	0.3316125572	1.0566492081	0.7454479337	1.2954237461	0.0000000000	0.0000000000	0.0000000000
2.5855777585	0.3316125572	1.0566492081	0.7454479337	1.2954237461	0.0000000000	0.0000000000	0.0000000000
2.5897480452	0.3316125572	1.0566492081	0.7454479337	1.2954237461	0.0000000000	0.0000000000	0.0000000000
2.5939183319	0.3316125572	1.0566492081	0.7454479337	1.2954237461	0.0000000000	0.0000000000	0.0000000000
2.5980886186	0.3316125572	1.0566492081	0.7454479337	1.2954237461	0.0000000000	0.0000000000	0.0000000000
2.6022589053	0.3316125572	1.0566492081	0.7454479337	1.2954237461	0.0000000000	0.0000000000	0.0000000000
2.6064291920	0.3316125572	1.0566492081	0.7454479337	1.2954237461	0.0000000000	0.0000000000	0.0000000000
2.6105994787	0.3316125572	1.0566492081	0.7454479337	1.2954237461	0.0000000000	0.0000000000	0.0000000000
2.6147697654	0.3316125572	1.0566492081	0.7454479337	1.2954237461	0.0000000000	0.0000000000	0.0000000000
2.6189400521	0.3316125572	1.0566492081	0.7454479337	1.2954237461	0.0000000000	0.0000000000	0.0000000000
2.6231103388	0.3316125572	1.0566492081	0.7454479337	1.2954237461	0.0000000000	0.0000000000	0.0000000000
2.6272806255	0.3316125572	1.0566492081	0.7454479337	1.2954237461	0.0000000000	0.0000000000	0.0000000000
2.6314509123	0.3316125572	1.0566492081	0.7454479337	1.2954237461	0.0000000000	0.0000000000	0.0000000000
2.6356211990	0.3316125572	1.0566492081	0.7454479337	1.2954237461	0.0000000000	0.0000000000	0.0000000000
2.6397914857	0.3316125572	1.0566492081	0.7454479337	1.2954237461	0.0000000000	0.0000000000	0.0000000000
2.6439617724	0.3316125572	1.0566492081	0.7454479337	1.2954237461	0.0000000000	0.0000000000	0.0000000000
2.6481320591	0.3316125572	1.0566492081	0.7454479337	1.2954237461	0.0000000000	0.0000000000	0.0000000000
2.6523023458	0.3316125572	1.0566492081	0.7454479337	1.2954237461	0.0000000000	0.0000000000	0.0000000000
2.6564726325	0.3316128552	1.0566486120	0.7454481721	1.2954252958	0.0000000000	0.0000000000	0.0000000000
2.6606429192	0.3316148520	1.0566447973	0.7454494834	1.2954354286	0.0000000000	0.0000000000	0.0000000000
2.6648132059	0.3316201866	1.0566347837	0.7454531193	1.2954626083	0.0000000000	0.0000000000	0.0000000000
2.6689834926	0.3316304088	1.0566155910	0.7454602122	1.2955145836	0.0000000000	0.0000000000	0.0000000000
2.6731537793	0.3316469193	1.0565844774	0.7454715371	1.2955989838	0.0000000000	0.0000000000	0.0000000000
2.6773240660	0.3316711485	1.0565388203	0.7454882264	1.2957227230	0.0000000000	0.0000000000	0.0000000000
2.6814943527	0.3317043781	1.0564761162	0.7455110550	1.2958922386	0.0000000000	0.0000000000	0.0000000000
2.6856646394	0.3317478895	1.0563941002	0.7455410361	1.2961138487	0.0000000000	0.0000000000	0.0000000000
2.6898349262	0.3318027854	1.0562907457	0.7455787659	1.2963932753	0.0000000000	0.0000000000	0.0000000000
2.6940052129	0.3318702579	1.0561637878	0.7456251979	1.2967357635	0.0000000000	0.0000000000	0.0000000000
2.6981754996	0.3319513798	1.0560113192	0.7456808090	1.2971463203	0.0000000000	0.0000000000	0.0000000000
2.7023457863	0.3320471644	1.0558316708	0.7457464337	1.2976291180	0.0000000000	0.0000000000	0.0000000000
2.7065160730	0.3321585655	1.0556229353	0.7458226085	1.2981883287	0.0000000000	0.0000000000	0.0000000000
2.7106863597	0.3322865963	1.0553836823	0.7459098697	1.2988276482	0.0000000000	0.0000000000	0.0000000000
2.7148566464	0.3324321508	1.0551123619	0.7460088134	1.2995501757	0.0000000000	0.0000000000	0.0000000000
2.7190269331	0.3325961232	1.0548075438	0.7461199164	1.3003586531	0.0000000000	0.0000000000	0.0000000000
2.7231972198	0.3327794075	1.0544679165	0.7462436557	1.3012557030	0.0000000000	0.0000000000	0.0000000000
2.7273675065	0.3329828084	1.0540922880	0.7463804483	1.3022429943	0.0000000000	0.0000000000	0.0000000000
2.7315377932	0.3332071900	1.0536794662	0.7465306520	1.3033223152	0.0000000000	0.0000000000	0.0000000000
2.7357080799	0.3334533274	1.0532284975	0.7466946840	1.3044947386	0.0000000000	0.0000000000	0.0000000000
2.7398783666	0.3337220848	1.0527383089	0.7468728423	1.3057612181	0.0000000000	0.0000000000	0.0000000000
2.7440486533	0.3340142071	1.0522080660	0.7470654845	1.3071218729	0.0000000000	0.0000000000	0.0000000000
2.7482189401	0.3343304098	1.0516368151	0.7472727895	1.3085772991	0.0000000000	0.0000000000	0.0000000000
2.7523892268	0.3346715569	1.0510238409	0.7474950552	1.3101269007	0.0000000000	0.0000000000	0.0000000000
2.7565595135	0.3350383341	1.0503686666	0.7477325797	1.3117700815	0.0000000000	0.0000000000	0.0000000000
